<svg width="20" height="18" viewBox="0 0 20 18" fill="none" xmlns="http://www.w3.org/2000/svg">
<path d="M10.0007 6.31451C7.78693 6.31451 6 8.10144 6 10.3152C6 11.3819 6.42678 12.4222 7.20022 13.1689C7.60038 13.569 8.24034 13.5422 8.61389 13.1689C9.01405 12.7687 8.98721 12.1288 8.61389 11.7552C7.84043 10.9818 7.8138 9.70163 8.61389 8.92817C9.38734 8.15472 10.6675 8.12808 11.4409 8.92817C12.2144 9.70163 12.241 10.9818 11.4409 11.7552C11.0676 12.1554 11.0942 12.7953 11.4942 13.1689C11.8675 13.5156 12.481 13.5156 12.8543 13.1689C14.4279 11.6219 14.4279 9.08834 12.881 7.51468C12.0811 6.74122 11.0676 6.31445 10.0006 6.31445L10.0007 6.31451Z" fill="white"/>
<path d="M11.0152 10.3162C11.0152 10.8761 10.5616 11.3297 10.0018 11.3297C9.44211 11.3297 8.98828 10.8761 8.98828 10.3162C8.98828 9.75656 9.44212 9.30273 10.0018 9.30273C10.5616 9.30273 11.0152 9.75657 11.0152 10.3162Z" fill="white"/>
<path d="M10.0013 0.314904C4.48051 0.314904 0 4.79558 0 10.3162C0 12.9565 1.0667 15.4903 2.93377 17.384C3.33393 17.7841 3.94724 17.7841 4.34743 17.384C4.74759 16.9838 4.74759 16.3705 4.34743 15.9703C1.22692 12.8498 1.22692 7.7824 4.34743 4.66189C7.46795 1.54137 12.5353 1.54137 15.6558 4.66189C18.7764 7.7824 18.803 12.8498 15.6825 15.9703C15.2823 16.3705 15.2823 16.9838 15.6825 17.384C16.0826 17.7841 16.6959 17.7841 17.0961 17.384C20.9902 13.4634 20.9633 7.11572 17.0429 3.24845C15.1492 1.35457 12.6422 0.314453 10.0016 0.314453L10.0013 0.314904Z" fill="white"/>
<path d="M9.99951 3.30285C6.13235 3.30285 3.01172 6.45 3.01172 10.3171C3.01172 12.1841 3.75859 13.9442 5.06531 15.2778C5.46547 15.678 6.07879 15.678 6.47898 15.2778C6.87914 14.8777 6.87914 14.2644 6.47898 13.8642C4.5321 11.9173 4.5321 8.7435 6.47898 6.7964C8.42585 4.84953 11.5996 4.84953 13.5467 6.7964C15.4936 8.74328 15.4936 11.9171 13.5467 13.8642C13.1734 14.2643 13.2 14.9043 13.6 15.2778C13.9733 15.6245 14.5868 15.6245 14.9601 15.2778C17.6805 12.5309 17.6805 8.10363 14.9601 5.38296C13.6268 4.04961 11.8664 3.30273 9.99941 3.30273L9.99951 3.30285Z" fill="white"/>
</svg>
