<svg width="20" height="18" viewBox="0 0 20 18" fill="none" xmlns="http://www.w3.org/2000/svg">
<path d="M11.977 6.41016C10.9875 6.41016 10.1875 7.21016 10.1875 8.19963C10.1875 9.1891 10.9875 9.9891 11.977 9.9891C12.9664 9.9891 13.7664 9.1891 13.7664 8.19963C13.7664 7.21016 12.9664 6.41016 11.977 6.41016Z" fill="white"/>
<path d="M17.7263 0.369141H2.27368C1.01053 0.369141 0 1.40072 0 2.64282V13.8218C0 15.0849 1.03158 16.0955 2.27368 16.0955H2.92632L3.17895 17.106C3.26316 17.4218 3.53684 17.6323 3.85263 17.6323H6.06316C6.37895 17.6323 6.63158 17.4218 6.71579 17.127L6.96842 16.1165H13.0316L13.2842 17.127C13.3684 17.4218 13.6421 17.6323 13.9579 17.6323H16.1684C16.4842 17.6323 16.7368 17.4218 16.8211 17.127L17.0737 16.1165H17.7263C18.9895 16.1165 20 15.0849 20 13.8428V2.64282C20 1.40072 18.9684 0.369141 17.7263 0.369141ZM3.47368 4.30598C3.47368 3.94809 3.76842 3.65335 4.12632 3.65335C4.48421 3.65335 4.77895 3.94809 4.77895 4.30598V12.2007C4.77895 12.5586 4.48421 12.8534 4.12632 12.8534C3.76842 12.8534 3.47368 12.5376 3.47368 12.1797V4.30598ZM12.5895 12.0955C12.5895 12.4534 12.2947 12.7481 11.9368 12.7481C11.5789 12.7481 11.2842 12.4534 11.2842 12.0955V11.2323C10.9263 11.1481 10.5684 11.0007 10.2737 10.7902L9.66316 11.4007C9.53684 11.527 9.36842 11.5902 9.2 11.5902C9.03158 11.5902 8.86316 11.527 8.73684 11.4007C8.48421 11.1481 8.48421 10.727 8.73684 10.4744L9.36842 9.84283C9.17895 9.52704 9.03158 9.19019 8.96842 8.8323H8.08421C7.72632 8.8323 7.43158 8.53756 7.43158 8.17967C7.43158 7.82177 7.72632 7.52704 8.08421 7.52704H8.98947C9.07368 7.16914 9.22105 6.8323 9.41053 6.51651L8.77895 5.88493C8.52632 5.6323 8.52632 5.21125 8.77895 4.95861C9.03158 4.70598 9.45263 4.70598 9.70526 4.95861L10.3368 5.59019C10.6316 5.40072 10.9895 5.25335 11.3474 5.16914V4.28493C11.3474 3.92704 11.6421 3.6323 12 3.6323C12.3579 3.6323 12.6526 3.92704 12.6526 4.28493V5.16914C13.0316 5.25335 13.3684 5.40072 13.6632 5.59019L14.2737 4.97967C14.5263 4.72704 14.9474 4.72704 15.2 4.97967C15.4526 5.2323 15.4526 5.65335 15.2 5.90598L14.5895 6.51651C14.8 6.8323 14.9474 7.16914 15.0105 7.54809H15.8526C16.2105 7.54809 16.5053 7.84283 16.5053 8.20072C16.5053 8.55861 16.2105 8.85335 15.8526 8.85335H15.0105C14.9263 9.2323 14.7789 9.56914 14.5684 9.88493L15.1579 10.4744C15.4105 10.727 15.4105 11.1481 15.1579 11.4007C15.0316 11.527 14.8632 11.5902 14.6947 11.5902C14.5263 11.5902 14.3579 11.527 14.2316 11.4007L13.6211 10.7902C13.3053 10.9797 12.9684 11.127 12.5895 11.2112V12.0955Z" fill="white"/>
</svg>
