<svg width="20" height="20" viewBox="0 0 20 20" fill="none" xmlns="http://www.w3.org/2000/svg">
<path d="M18.63 10.4004H11.7668C11.0088 10.4004 10.3984 11.0109 10.3984 11.7687V18.6319C10.3984 19.3899 11.009 20.0003 11.7668 20.0003L18.63 20.0004C19.388 20.0004 19.9983 19.3899 19.9983 18.6321L19.9985 11.7689C19.9985 11.0111 19.388 10.4006 18.63 10.4006L18.63 10.4004ZM13.0301 11.9372C13.6407 11.9372 14.1248 12.4213 14.1248 13.0318C14.1248 13.6424 13.6407 14.1265 13.0301 14.1265C12.4196 14.1265 11.9355 13.6424 11.9355 13.0318C11.9355 12.4215 12.4198 11.9372 13.0301 11.9372ZM13.0301 18.4634C12.4196 18.4634 11.9355 17.9793 11.9355 17.3687C11.9355 16.7582 12.4196 16.2741 13.0301 16.2741C13.6407 16.2741 14.1248 16.7582 14.1248 17.3687C14.104 17.9791 13.6197 18.4634 13.0301 18.4634ZM15.1986 16.2949C14.5881 16.2949 14.104 15.8108 14.104 15.2002C14.104 14.5897 14.5881 14.1056 15.1986 14.1056C15.8092 14.1056 16.2933 14.5897 16.2933 15.2002C16.2933 15.8108 15.8092 16.2949 15.1986 16.2949ZM17.388 18.4634C16.7775 18.4634 16.2933 17.9793 16.2933 17.3687C16.2933 16.7582 16.7775 16.2741 17.388 16.2741C17.9985 16.2741 18.4827 16.7582 18.4827 17.3687C18.4618 17.9791 17.9775 18.4634 17.388 18.4634ZM17.388 14.1056C16.7775 14.1056 16.2933 13.6214 16.2933 13.0109C16.2933 12.4004 16.7775 11.9162 17.388 11.9162C17.9985 11.9162 18.4827 12.4004 18.4827 13.0109C18.4618 13.6212 17.9775 14.1056 17.388 14.1056Z" fill="white"/>
<path d="M8.23154 0H1.36833C0.610528 0 0 0.610527 0 1.36833V8.23154C0 8.98952 0.610528 9.59987 1.36833 9.59987H8.23154C8.98952 9.59987 9.59988 8.98935 9.59988 8.23154L9.60005 1.36833C9.60005 0.610527 8.98952 0 8.23154 0H8.23154ZM3.26339 4.46316C2.61081 4.46316 2.08448 3.93682 2.08448 3.28424C2.08448 2.63166 2.61081 2.10533 3.26339 2.10533C3.91598 2.10533 4.44231 2.63166 4.44231 3.28424C4.44231 3.93682 3.91598 4.46316 3.26339 4.46316ZM6.33697 7.51571C5.68439 7.51571 5.15806 6.98937 5.15806 6.33679C5.15806 5.68421 5.68439 5.15788 6.33697 5.15788C6.98955 5.15788 7.51588 5.68421 7.51588 6.33679C7.51588 6.98955 6.98973 7.51571 6.33697 7.51571Z" fill="white"/>
<path d="M3.57864 12.8622C3.57864 12.5043 3.28397 12.2306 2.94709 12.2306L1.2839 12.2305C0.92601 12.2305 0.652344 12.5251 0.652344 12.862C0.652344 13.2199 0.947023 13.4936 1.2839 13.4936H2.92593C3.28399 13.5148 3.57869 13.2201 3.57869 12.8622L3.57864 12.8622Z" fill="white"/>
<path d="M3.72629 15.3887L2.5684 16.5466C2.31574 16.7993 2.31574 17.1992 2.5684 17.4518C2.69464 17.5781 2.86308 17.6413 3.01051 17.6413C3.15793 17.6413 3.34738 17.5781 3.45261 17.4518L4.6105 16.2939C4.86316 16.0413 4.86316 15.6413 4.6105 15.3887C4.37885 15.1361 3.95774 15.1361 3.72627 15.3887H3.72629Z" fill="white"/>
<path d="M7.13937 16.4219C6.78148 16.4219 6.50781 16.7166 6.50781 17.0534V18.6955C6.50781 19.0533 6.80249 19.327 7.13937 19.327C7.49726 19.327 7.77092 19.0323 7.77092 18.6955V17.0534C7.77092 16.7166 7.47624 16.4219 7.13937 16.4219Z" fill="white"/>
<path d="M16.4219 7.13652C16.4219 7.49441 16.7166 7.76807 17.0534 7.76807H18.6955C19.0533 7.76807 19.327 7.47339 19.327 7.13652C19.327 6.77863 19.0323 6.50496 18.6955 6.50496H17.0534C16.7166 6.48395 16.4219 6.77863 16.4219 7.13652Z" fill="white"/>
<path d="M15.8323 4.79946C16.0007 4.79946 16.1692 4.73625 16.2744 4.61001L17.4323 3.45213C17.6849 3.19947 17.6849 2.79955 17.4323 2.54691C17.1796 2.29426 16.7797 2.29426 16.5271 2.54691L15.3692 3.7048C15.1165 3.95746 15.1165 4.35738 15.3692 4.61001C15.4954 4.73625 15.6639 4.79946 15.8323 4.79946H15.8323Z" fill="white"/>
<path d="M12.8659 3.57864C13.2238 3.57864 13.4975 3.28397 13.4975 2.94709V1.2839C13.4975 0.92601 13.2028 0.652344 12.8659 0.652344C12.508 0.652344 12.2344 0.947023 12.2344 1.2839V2.92593C12.2342 3.28399 12.5291 3.57869 12.8659 3.57869V3.57864Z" fill="white"/>
</svg>
