<svg width="25" height="25" viewBox="0 0 25 25" fill="none" xmlns="http://www.w3.org/2000/svg">
<path d="M12.4997 0C5.60301 0 0 5.60355 0 12.4997C0 19.3964 5.60355 25 12.5003 25C19.397 25 25.0005 19.3964 25.0005 12.4997C25.0003 5.60301 19.3964 0 12.4997 0ZM10.3791 10.1897C10.1549 10.2932 9.91364 10.1381 9.91364 9.89661V8.01726C4.67215 9.15511 3.18949 13.7934 2.77554 16.5517C2.13748 15.2242 1.81003 13.8104 1.63768 12.7241C2.65502 6.65528 7.96536 4.63798 9.91386 4.08587L9.91364 2.10303C9.91364 1.86155 10.1722 1.70646 10.3791 1.80992L18.1895 5.70663C18.4309 5.82737 18.4309 6.1721 18.1895 6.29282L10.3791 10.1897ZM15.793 23.259V20.1727C23.8447 16.552 22.7241 8.13823 22.7241 8.13823C25.4828 19.4141 15.793 23.259 15.793 23.259Z" fill="url(#paint0_linear_20_202)"/>
<defs>
<linearGradient id="paint0_linear_20_202" x1="12.5003" y1="0" x2="12.5003" y2="25" gradientUnits="userSpaceOnUse">
<stop stop-color="#DBEEFF"/>
<stop offset="1" stop-color="#168FFF"/>
</linearGradient>
</defs>
</svg>
