<svg width="20" height="16" viewBox="0 0 20 16" fill="none" xmlns="http://www.w3.org/2000/svg">
<path d="M0 3C0 2.33696 0.263392 1.70107 0.732233 1.23223C1.20107 0.763392 1.83696 0.5 2.5 0.5H17.5C18.163 0.5 18.7989 0.763392 19.2678 1.23223C19.7366 1.70107 20 2.33696 20 3V5.5C19.337 5.5 18.7011 5.76339 18.2322 6.23223C17.7634 6.70107 17.5 7.33696 17.5 8C17.5 8.66304 17.7634 9.29893 18.2322 9.76777C18.7011 10.2366 19.337 10.5 20 10.5V13C20 13.663 19.7366 14.2989 19.2678 14.7678C18.7989 15.2366 18.163 15.5 17.5 15.5H2.5C1.83696 15.5 1.20107 15.2366 0.732233 14.7678C0.263392 14.2989 0 13.663 0 13V10.5C0.663041 10.5 1.29893 10.2366 1.76777 9.76777C2.23661 9.29893 2.5 8.66304 2.5 8C2.5 7.33696 2.23661 6.70107 1.76777 6.23223C1.29893 5.76339 0.663041 5.5 0 5.5V3Z" fill="white"/>
</svg>
