<svg width="20" height="25" viewBox="0 0 20 25" fill="none" xmlns="http://www.w3.org/2000/svg">
<path d="M6.03516 11.207H9.48353V14.6554H6.03516V11.207Z" fill="url(#paint0_linear_20_228)"/>
<path d="M6.03516 10.3449H9.48353V6.89648H6.03516V10.3449ZM7.75926 7.75865H7.75949C7.98817 7.75865 8.20729 7.84944 8.36908 8.01099C8.53063 8.17277 8.62142 8.39213 8.62142 8.62059C8.62142 8.84927 8.53063 9.06862 8.36908 9.23018C8.2073 9.39196 7.98817 9.48275 7.75949 9.48275C7.5308 9.48275 7.31146 9.39196 7.14989 9.23018C6.98811 9.06863 6.89733 8.84927 6.89733 8.62059C6.89733 8.39213 6.98811 8.17278 7.14989 8.01099C7.31144 7.84944 7.5308 7.75865 7.75949 7.75865H7.75926Z" fill="url(#paint1_linear_20_228)"/>
<path d="M6.03516 2.58594H9.48353V6.03432H6.03516V2.58594Z" fill="url(#paint2_linear_20_228)"/>
<path d="M10.3438 15.5176H13.7921V18.966H10.3438V15.5176Z" fill="url(#paint3_linear_20_228)"/>
<path d="M10.3438 14.6554H13.7921L13.7919 11.207H10.3438L10.3438 14.6554ZM12.0679 12.0692C12.2965 12.0692 12.5157 12.16 12.6774 12.3218C12.839 12.4833 12.93 12.7027 12.93 12.9314C12.93 13.1598 12.839 13.3792 12.6774 13.541C12.5157 13.7025 12.2965 13.7933 12.0679 13.7933C11.8392 13.7933 11.62 13.7025 11.4583 13.541C11.2965 13.3792 11.2057 13.1598 11.2057 12.9314C11.2057 12.7027 11.2965 12.4833 11.4583 12.3218C11.62 12.16 11.8392 12.0692 12.0679 12.0692Z" fill="url(#paint4_linear_20_228)"/>
<path d="M1.72266 11.207H5.17103V14.6554H1.72266V11.207Z" fill="url(#paint5_linear_20_228)"/>
<path d="M6.03516 15.5176H9.48353V18.966H6.03516V15.5176Z" fill="url(#paint6_linear_20_228)"/>
<path d="M1.72266 15.5176H5.17103V18.966H1.72266V15.5176Z" fill="url(#paint7_linear_20_228)"/>
<path d="M1.72266 6.03432H5.17103V2.58594H1.72266V6.03432ZM3.44676 3.4481H3.44699C3.67544 3.4481 3.89479 3.53889 4.05634 3.70045C4.21812 3.86223 4.30891 4.08135 4.30891 4.31004C4.30891 4.53872 4.21812 4.75807 4.05634 4.91963C3.89479 5.08141 3.67544 5.1722 3.44699 5.1722C3.2183 5.1722 2.99896 5.08141 2.83739 4.91963C2.67561 4.75808 2.58482 4.53872 2.58482 4.31004C2.58482 4.08135 2.67561 3.86224 2.83739 3.70045C2.99894 3.53889 3.2183 3.4481 3.44699 3.4481H3.44676Z" fill="url(#paint8_linear_20_228)"/>
<path d="M1.72266 6.89648H5.17103V10.3449H1.72266V6.89648Z" fill="url(#paint9_linear_20_228)"/>
<path d="M14.6562 2.58594H18.1046V6.03432H14.6562V2.58594Z" fill="url(#paint10_linear_20_228)"/>
<path d="M14.6562 6.89648H18.1046V10.3449H14.6562V6.89648Z" fill="url(#paint11_linear_20_228)"/>
<path d="M0 0V25H19.8279V0H0ZM18.1037 23.2758H1.72422V22.4138H18.1037V23.2758ZM2.58633 21.5517V20.6897H17.2416V21.5519L2.58633 21.5517ZM18.9658 19.3964V19.3966C18.9658 19.5109 18.9205 19.6205 18.8395 19.7013C18.7588 19.7821 18.6491 19.8276 18.5349 19.8276H1.29325C1.05525 19.8276 0.86229 19.6346 0.86229 19.3966V2.15504C0.86229 1.91681 1.05525 1.72385 1.29325 1.72385H18.5349C18.6491 1.72385 18.7588 1.76936 18.8395 1.85014C18.9205 1.93091 18.9658 2.04059 18.9658 2.15505V19.3964Z" fill="url(#paint12_linear_20_228)"/>
<path d="M14.6562 11.207H18.1046V14.6554H14.6562V11.207Z" fill="url(#paint13_linear_20_228)"/>
<path d="M14.6562 18.9657H18.1046V15.5176H14.6562V18.9657ZM16.3804 16.3795C16.609 16.3795 16.8284 16.4703 16.9899 16.6321C17.1517 16.7936 17.2425 17.013 17.2425 17.2417C17.2425 17.4704 17.1517 17.6895 16.9899 17.8513C16.8284 18.0128 16.609 18.1038 16.3804 18.1038C16.1517 18.1038 15.9325 18.0128 15.7708 17.8513C15.6092 17.6895 15.5184 17.4704 15.5184 17.2417C15.5184 17.013 15.6092 16.7936 15.7708 16.6321C15.9325 16.4703 16.1517 16.3795 16.3804 16.3795Z" fill="url(#paint14_linear_20_228)"/>
<path d="M10.3438 2.58594H13.7921V6.03432H10.3438V2.58594Z" fill="url(#paint15_linear_20_228)"/>
<path d="M10.3438 6.89648H13.7921V10.3449H10.3438V6.89648Z" fill="url(#paint16_linear_20_228)"/>
<defs>
<linearGradient id="paint0_linear_20_228" x1="7.75935" y1="11.207" x2="7.75935" y2="14.6554" gradientUnits="userSpaceOnUse">
<stop stop-color="#DBEEFF"/>
<stop offset="1" stop-color="#168FFF"/>
</linearGradient>
<linearGradient id="paint1_linear_20_228" x1="7.75935" y1="6.89648" x2="7.75935" y2="10.3449" gradientUnits="userSpaceOnUse">
<stop stop-color="#DBEEFF"/>
<stop offset="1" stop-color="#168FFF"/>
</linearGradient>
<linearGradient id="paint2_linear_20_228" x1="7.75935" y1="2.58594" x2="7.75935" y2="6.03432" gradientUnits="userSpaceOnUse">
<stop stop-color="#DBEEFF"/>
<stop offset="1" stop-color="#168FFF"/>
</linearGradient>
<linearGradient id="paint3_linear_20_228" x1="12.0679" y1="15.5176" x2="12.0679" y2="18.966" gradientUnits="userSpaceOnUse">
<stop stop-color="#DBEEFF"/>
<stop offset="1" stop-color="#168FFF"/>
</linearGradient>
<linearGradient id="paint4_linear_20_228" x1="12.0679" y1="11.207" x2="12.0679" y2="14.6554" gradientUnits="userSpaceOnUse">
<stop stop-color="#DBEEFF"/>
<stop offset="1" stop-color="#168FFF"/>
</linearGradient>
<linearGradient id="paint5_linear_20_228" x1="3.44685" y1="11.207" x2="3.44685" y2="14.6554" gradientUnits="userSpaceOnUse">
<stop stop-color="#DBEEFF"/>
<stop offset="1" stop-color="#168FFF"/>
</linearGradient>
<linearGradient id="paint6_linear_20_228" x1="7.75935" y1="15.5176" x2="7.75935" y2="18.966" gradientUnits="userSpaceOnUse">
<stop stop-color="#DBEEFF"/>
<stop offset="1" stop-color="#168FFF"/>
</linearGradient>
<linearGradient id="paint7_linear_20_228" x1="3.44685" y1="15.5176" x2="3.44685" y2="18.966" gradientUnits="userSpaceOnUse">
<stop stop-color="#DBEEFF"/>
<stop offset="1" stop-color="#168FFF"/>
</linearGradient>
<linearGradient id="paint8_linear_20_228" x1="3.44685" y1="2.58594" x2="3.44685" y2="6.03432" gradientUnits="userSpaceOnUse">
<stop stop-color="#DBEEFF"/>
<stop offset="1" stop-color="#168FFF"/>
</linearGradient>
<linearGradient id="paint9_linear_20_228" x1="3.44685" y1="6.89648" x2="3.44685" y2="10.3449" gradientUnits="userSpaceOnUse">
<stop stop-color="#DBEEFF"/>
<stop offset="1" stop-color="#168FFF"/>
</linearGradient>
<linearGradient id="paint10_linear_20_228" x1="16.3804" y1="2.58594" x2="16.3804" y2="6.03432" gradientUnits="userSpaceOnUse">
<stop stop-color="#DBEEFF"/>
<stop offset="1" stop-color="#168FFF"/>
</linearGradient>
<linearGradient id="paint11_linear_20_228" x1="16.3804" y1="6.89648" x2="16.3804" y2="10.3449" gradientUnits="userSpaceOnUse">
<stop stop-color="#DBEEFF"/>
<stop offset="1" stop-color="#168FFF"/>
</linearGradient>
<linearGradient id="paint12_linear_20_228" x1="9.91396" y1="0" x2="9.91396" y2="25" gradientUnits="userSpaceOnUse">
<stop stop-color="#DBEEFF"/>
<stop offset="1" stop-color="#168FFF"/>
</linearGradient>
<linearGradient id="paint13_linear_20_228" x1="16.3804" y1="11.207" x2="16.3804" y2="14.6554" gradientUnits="userSpaceOnUse">
<stop stop-color="#DBEEFF"/>
<stop offset="1" stop-color="#168FFF"/>
</linearGradient>
<linearGradient id="paint14_linear_20_228" x1="16.3804" y1="15.5176" x2="16.3804" y2="18.9657" gradientUnits="userSpaceOnUse">
<stop stop-color="#DBEEFF"/>
<stop offset="1" stop-color="#168FFF"/>
</linearGradient>
<linearGradient id="paint15_linear_20_228" x1="12.0679" y1="2.58594" x2="12.0679" y2="6.03432" gradientUnits="userSpaceOnUse">
<stop stop-color="#DBEEFF"/>
<stop offset="1" stop-color="#168FFF"/>
</linearGradient>
<linearGradient id="paint16_linear_20_228" x1="12.0679" y1="6.89648" x2="12.0679" y2="10.3449" gradientUnits="userSpaceOnUse">
<stop stop-color="#DBEEFF"/>
<stop offset="1" stop-color="#168FFF"/>
</linearGradient>
</defs>
</svg>
