<svg width="20" height="20" viewBox="0 0 20 20" fill="none" xmlns="http://www.w3.org/2000/svg">
<path d="M6.66708 0.953125C3.10033 0.953125 0.186643 2.35414 0.00816692 4.11532C0.107933 5.10136 1.15293 5.78656 1.83104 6.13909C3.03648 6.74927 4.76016 7.15107 6.66723 7.15107C7.20573 7.15107 7.72909 7.11454 8.22968 7.05425C9.47026 5.8655 11.1236 5.10097 12.9544 5.00811C13.1348 4.72414 13.2945 4.42015 13.3263 4.13006C12.9652 1.5405 8.46634 0.944488 6.6674 0.953286L6.66708 0.953125ZM13.3335 5.71492C9.65171 5.71492 6.66708 8.69959 6.66708 12.3814C6.66708 16.0632 9.65176 19.0478 13.3335 19.0478C17.0153 19.0478 20 16.0632 20 12.3814C20 8.69959 17.0153 5.71492 13.3335 5.71492ZM0.00766444 6.01991V6.99459C0.080719 7.69587 0.700503 8.41661 1.83053 8.98869C2.9678 9.56429 4.56815 9.9508 6.34683 9.99318C6.5823 9.30447 6.91987 8.6611 7.33644 8.08098C7.11571 8.09158 6.893 8.0959 6.66678 8.0959C4.62909 8.0959 2.77872 7.68565 1.39897 6.98729C0.860478 6.7147 0.388196 6.38711 0.00756395 6.0201L0.00766444 6.01991ZM13.2813 7.61221L13.2815 7.61241C13.4179 7.59729 13.554 7.64187 13.6552 7.73456C13.7565 7.82706 13.8127 7.95883 13.8097 8.09611V8.84767C14.6701 8.97061 15.4425 9.4288 15.6921 10.254L15.6923 10.2538C15.7423 10.3777 15.7382 10.5172 15.6805 10.6379C15.6229 10.7587 15.5171 10.8496 15.389 10.8883C15.261 10.9272 15.1226 10.9103 15.0075 10.842C14.8924 10.7736 14.8115 10.6601 14.7844 10.5291C14.6467 10.0739 14.0974 9.76286 13.3335 9.76286C12.8869 9.76286 12.5187 9.89208 12.2769 10.0828C12.0352 10.2735 11.905 10.5062 11.905 10.8343C11.905 11.1996 12.0033 11.2821 12.2769 11.4445C12.5505 11.6067 13.0081 11.7444 13.5045 11.9357C13.9413 12.104 14.4356 12.2295 14.881 12.4936C15.3264 12.7578 15.7143 13.265 15.7143 13.9296C15.7143 14.5392 15.4273 15.0763 14.9851 15.4251C14.6569 15.6837 14.253 15.8479 13.8095 15.9162V16.6678L13.8097 16.6674C13.8115 16.7948 13.7622 16.9178 13.6726 17.0085C13.5833 17.0992 13.4611 17.1503 13.3336 17.1503C13.206 17.1503 13.0838 17.0992 12.9945 17.0085C12.9049 16.9178 12.8556 16.7948 12.8574 16.6674V15.9158C11.9971 15.7929 11.2246 15.3347 10.9751 14.5097H10.9749C10.9285 14.3869 10.9346 14.2505 10.9922 14.1324C11.0497 14.0144 11.1534 13.9252 11.2787 13.8862C11.404 13.8473 11.5399 13.8616 11.6542 13.9262C11.7687 13.9906 11.8513 14.0994 11.8828 14.2269C12.0204 14.6821 12.5697 15.0007 13.3337 15.0007C13.7802 15.0007 14.1485 14.8715 14.3902 14.6808C14.632 14.4901 14.7622 14.2574 14.7622 13.9294C14.7622 13.5641 14.6638 13.4742 14.3902 13.3118C14.1167 13.1496 13.6591 13.0119 13.1626 12.8206C12.7259 12.6523 12.2315 12.5268 11.7861 12.2627C11.3407 11.9985 10.9529 11.4987 10.9529 10.8342C10.9529 10.2246 11.2398 9.67999 11.6821 9.33118C12.0102 9.07235 12.4142 8.9062 12.8576 8.84002V8.0959L12.8575 8.0961C12.8521 7.84924 13.0362 7.63931 13.2815 7.6124L13.2813 7.61221ZM0.00766444 8.87713V9.85181C0.080719 10.5531 0.700503 11.2738 1.83053 11.8459C2.88691 12.3805 4.34036 12.7585 5.96741 12.843C5.95798 12.69 5.95248 12.537 5.95248 12.3817C5.95248 11.8877 6.00138 11.405 6.09388 10.9382C4.28499 10.8673 2.64728 10.4688 1.39905 9.83709C0.860559 9.5645 0.388277 9.2444 0.00764527 8.87734L0.00766444 8.87713ZM0.00766444 11.7342V12.7088C0.080719 13.4101 0.700503 14.1309 1.83053 14.7029C3.50373 15.5219 5.2443 15.7035 6.74863 15.7149C6.44561 15.1171 6.21778 14.473 6.08641 13.7952C4.28043 13.7235 2.64554 13.3249 1.39907 12.6941C0.860579 12.4215 0.388296 12.1014 0.00766444 11.7344V11.7342ZM0.000200989 14.5912V15.7147C0.000200989 17.5556 2.98608 19.048 6.66666 19.048C7.70358 19.048 8.67881 18.9245 9.55355 18.7132C8.66921 18.1841 7.90036 17.483 7.30651 16.6448C7.09539 16.6548 6.88329 16.6672 6.66666 16.6672C4.62897 16.6672 2.7786 16.2495 1.39885 15.5511C0.858596 15.2778 0.381386 14.96 0 14.5914L0.000200989 14.5912Z" fill="white"/>
</svg>
