<svg version="1.0" xmlns="http://www.w3.org/2000/svg"
 width="1080.000000pt" height="1080.000000pt" viewBox="0 0 1080.000000 1080.000000"
 preserveAspectRatio="xMidYMid meet">

<g transform="translate(0.000000,1080.000000) scale(0.100000,-0.100000)"
fill="#000000" stroke="none">
<path d="M5350 8164 c0 -10 97 -43 112 -38 11 3 17 8 15 11 -6 5 -127 31 -127
27z"/>
<path d="M5835 8138 c46 -25 80 -67 115 -144 l38 -81 68 -9 c38 -5 78 -8 89
-7 11 1 56 -7 100 -17 80 -19 303 -50 353 -50 24 1 16 11 -77 99 -96 92 -109
100 -175 120 -97 28 -232 57 -378 81 -142 23 -162 24 -133 8z"/>
<path d="M5065 8120 c-3 -5 3 -10 14 -10 11 0 23 5 26 10 3 6 -3 10 -14 10
-11 0 -23 -4 -26 -10z"/>
<path d="M5660 8086 c-26 -10 -34 -18 -32 -32 6 -32 42 -95 58 -101 8 -3 13
-12 10 -19 -8 -20 5 -24 112 -39 144 -21 135 -27 97 66 -19 44 -39 87 -46 95
-35 43 -127 56 -199 30z"/>
<path d="M5365 8053 c-63 -13 -161 -47 -167 -57 -4 -6 -8 -23 -8 -37 0 -21 -8
-30 -37 -42 l-38 -16 40 4 c22 3 130 8 240 11 l200 7 0 56 c-1 31 -4 62 -8 69
-8 12 -173 16 -222 5z"/>
<path d="M4945 8030 c-4 -6 9 -17 29 -25 43 -18 46 -18 46 -4 0 28 -61 51 -75
29z"/>
<path d="M4812 7965 c-41 -18 -92 -73 -92 -100 0 -12 -5 -26 -12 -33 -19 -19
-6 -21 52 -6 30 8 111 26 180 40 69 15 128 29 132 33 4 3 -12 7 -35 9 -23 1
-47 9 -53 17 -14 19 -93 55 -119 54 -11 0 -35 -6 -53 -14z"/>
<path d="M4390 7933 c-81 -29 -102 -61 -31 -48 41 8 61 21 61 41 0 15 -5 16
-30 7z"/>
<path d="M6000 7892 c0 -24 67 -46 92 -31 9 6 7 9 -7 9 -12 0 -25 4 -30 9 -16
14 -55 23 -55 13z"/>
<path d="M4048 7764 c-70 -40 -141 -90 -178 -125 -34 -33 -80 -65 -106 -75
-44 -17 -46 -19 -39 -48 14 -57 8 -76 -39 -126 -25 -27 -46 -52 -46 -55 0 -15
43 20 82 66 74 88 82 95 127 113 59 23 192 29 184 9 -5 -13 -2 -13 23 1 51 27
89 56 75 56 -10 0 -4 11 15 33 17 17 49 56 72 85 35 46 39 57 31 76 -10 21
-57 56 -76 56 -5 0 -61 -30 -125 -66z m62 -189 c0 -2 -13 -11 -30 -20 -38 -19
-40 -11 -2 9 31 17 32 18 32 11z"/>
<path d="M6191 7826 c7 -8 270 -96 286 -96 57 0 -89 61 -192 80 -33 6 -69 14
-80 17 -11 3 -17 3 -14 -1z"/>
<path d="M6998 7763 c6 -2 18 -2 25 0 6 3 1 5 -13 5 -14 0 -19 -2 -12 -5z"/>
<path d="M6765 7721 c-17 -7 -14 -11 25 -40 25 -18 99 -64 164 -103 219 -129
369 -244 556 -424 81 -78 126 -114 149 -119 18 -4 35 -5 37 -2 11 11 -22 95
-58 147 -47 68 -77 87 -161 99 -76 11 -96 20 -131 62 -39 46 -31 58 12 17 42
-42 78 -58 127 -58 48 0 79 -14 127 -58 26 -24 58 -42 79 -46 20 -3 44 -15 54
-26 10 -11 25 -20 34 -20 9 0 -5 21 -38 54 -43 44 -62 55 -107 65 -74 17 -108
48 -133 124 -21 60 -25 65 -125 142 -144 109 -156 113 -300 91 -119 -19 -146
-17 -146 8 0 14 31 23 160 44 l55 9 -30 12 c-21 9 -58 11 -126 6 -74 -5 -109
-3 -150 9 -29 9 -53 16 -53 15 -1 0 -10 -4 -21 -8z"/>
<path d="M3604 7454 c-141 -119 -393 -378 -380 -391 14 -15 57 10 70 41 15 36
50 66 77 66 9 0 29 10 44 23 15 12 53 36 84 52 39 21 66 46 93 85 21 30 54 71
73 91 35 36 42 62 27 87 -6 9 -30 -6 -88 -54z"/>
<path d="M6956 7482 c5 -5 56 -44 114 -87 120 -90 202 -159 311 -262 79 -76
106 -93 69 -45 -61 78 -349 320 -453 380 -38 22 -59 29 -41 14z"/>
<path d="M7566 7365 c4 -9 16 -21 28 -27 19 -10 19 -9 -3 16 -28 30 -33 32
-25 11z"/>
<path d="M3340 7115 c-7 -9 -10 -18 -7 -21 3 -3 10 4 17 15 13 25 8 27 -10 6z"/>
<path d="M3085 6889 c-38 -55 -81 -119 -93 -142 -13 -23 -30 -52 -38 -64 -14
-22 -13 -22 12 -13 65 25 94 61 94 116 0 43 39 113 76 137 22 14 34 30 34 45
0 12 -3 22 -7 22 -5 0 -39 -46 -78 -101z"/>
<path d="M3151 6894 c-12 -15 -28 -52 -37 -83 -33 -119 -41 -129 -137 -176
l-62 -30 -7 -58 c-4 -32 -19 -94 -33 -138 -14 -44 -25 -94 -25 -112 0 -35 29
-105 59 -143 l19 -24 7 38 c3 20 18 57 33 82 14 25 51 97 83 160 50 101 111
208 174 305 16 25 17 28 2 16 -9 -7 -23 -11 -31 -8 -10 4 -23 -6 -36 -29 -12
-18 -24 -34 -26 -34 -6 0 2 14 30 55 16 24 21 46 22 107 1 94 -6 109 -35 72z
m-33 -266 c-8 -13 -30 -49 -48 -80 -30 -55 -53 -82 -29 -35 24 47 81 137 86
137 3 0 -1 -10 -9 -22z m-125 -223 c-20 -41 -39 -73 -41 -71 -4 5 66 146 73
146 3 0 -12 -34 -32 -75z m-67 -142 c-8 -15 -15 -25 -16 -21 0 12 23 58 27 54
3 -2 -2 -17 -11 -33z m-25 -60 c-12 -20 -14 -14 -5 12 4 9 9 14 11 11 3 -2 0
-13 -6 -23z"/>
<path d="M8045 6784 c8 -19 23 -47 34 -62 11 -15 21 -41 23 -57 2 -24 8 -31
31 -33 l28 -3 -28 48 c-58 98 -88 143 -96 143 -4 0 -1 -16 8 -36z"/>
<path d="M6038 6585 c-106 -118 -194 -221 -196 -228 -2 -6 59 51 135 128 76
77 129 128 117 115 -119 -140 -195 -233 -203 -248 -8 -16 -2 -21 41 -38 28
-10 52 -24 55 -30 2 -7 -3 -29 -11 -49 -12 -28 -13 -41 -5 -51 23 -28 16 -43
179 375 49 129 88 236 86 238 -2 2 -91 -93 -198 -212z"/>
<path d="M7744 6695 c37 -59 66 -100 66 -94 0 14 -52 98 -68 111 -14 11 -14 9
2 -17z"/>
<path d="M8044 6670 c22 -169 35 -188 129 -197 70 -6 82 1 51 31 -8 9 -13 16
-9 16 3 0 -4 18 -16 39 -18 33 -29 41 -61 46 -47 8 -68 28 -68 64 0 16 -7 35
-17 42 -15 13 -16 10 -9 -41z"/>
<path d="M2815 6418 c-66 -145 -125 -308 -125 -346 0 -20 -11 -68 -25 -107
-27 -77 -32 -135 -12 -135 7 0 47 37 88 83 56 60 80 96 93 135 10 29 20 51 22
49 2 -2 -2 -23 -10 -45 -17 -47 -10 -53 21 -19 28 31 33 50 17 72 -8 10 -14
15 -14 9 0 -5 -14 20 -30 56 -38 83 -39 150 -5 250 14 40 23 75 21 77 -1 2
-20 -34 -41 -79z"/>
<path d="M8087 6390 c3 -25 22 -87 42 -139 l37 -94 74 -2 c41 -1 85 -5 98 -9
33 -12 29 20 -17 128 -21 50 -40 100 -42 111 -6 28 -43 42 -126 47 l-72 4 6
-46z"/>
<path d="M8238 6112 c-37 -8 -16 -36 42 -57 64 -23 75 -23 78 2 3 17 -4 26
-25 34 -47 19 -77 25 -95 21z"/>
<path d="M8380 6056 c0 -14 5 -26 10 -26 6 0 10 7 10 15 0 8 0 18 1 22 0 4 -4
9 -10 11 -6 2 -11 -8 -11 -22z"/>
<path d="M5528 6017 c-20 -23 -275 -307 -566 -632 l-530 -590 341 -3 c188 -1
347 -4 353 -6 8 -3 -33 -120 -112 -323 l-123 -318 77 -37 c42 -21 107 -45 145
-55 38 -10 67 -23 67 -30 0 -48 73 26 614 630 l576 642 -350 3 c-201 1 -350 6
-350 11 0 5 48 132 106 283 154 396 147 376 123 389 -11 6 -28 8 -36 5 -9 -4
-50 7 -92 23 -147 56 -127 64 -276 -106 -72 -81 -211 -237 -310 -347 -99 -110
-203 -227 -232 -260 -29 -34 -111 -122 -184 -196 -124 -128 -127 -130 -57 -45
42 50 98 119 127 155 29 36 69 83 90 105 20 22 120 135 221 250 101 116 239
272 307 347 68 76 123 140 123 143 0 14 -18 0 -52 -38z m582 -746 l45 -8 -47
-2 c-64 -3 -456 -3 -515 0 l-48 2 40 7 c57 10 471 10 525 1z"/>
<path d="M2835 5949 c-19 -17 -35 -38 -35 -46 0 -8 -4 -12 -9 -8 -5 3 -25 -14
-45 -38 -19 -24 -47 -49 -60 -57 l-25 -13 22 -38 c15 -26 29 -39 43 -39 18 0
23 -8 28 -42 7 -48 -5 -123 -28 -183 -22 -57 -20 -92 4 -100 28 -9 40 2 40 33
0 61 43 313 74 433 18 71 31 129 30 129 -2 0 -19 -14 -39 -31z m-48 -91 c-3
-8 -6 -5 -6 6 -1 11 2 17 5 13 3 -3 4 -12 1 -19z m-10 -40 c-3 -8 -6 -5 -6 6
-1 11 2 17 5 13 3 -3 4 -12 1 -19z m-13 -62 c-3 -21 -8 -35 -11 -32 -2 2 -1
20 3 40 3 21 8 35 11 32 2 -2 1 -20 -3 -40z"/>
<path d="M8115 5875 c2 -16 16 -85 30 -152 14 -68 32 -173 39 -235 9 -74 16
-107 21 -95 16 38 -44 402 -79 477 -16 35 -16 35 -11 5z"/>
<path d="M8283 5750 c3 -14 14 -78 23 -143 16 -109 19 -118 38 -115 17 2 22
12 27 58 3 31 11 66 18 79 12 21 8 27 -49 84 -51 51 -61 57 -57 37z"/>
<path d="M8470 5536 c0 -2 9 -6 20 -9 11 -3 18 -1 14 4 -5 9 -34 13 -34 5z"/>
<path d="M8490 5492 c0 -12 19 -26 26 -19 2 2 -2 10 -11 17 -9 8 -15 8 -15 2z"/>
<path d="M8356 5473 l-29 -15 7 -76 c3 -41 6 -90 6 -109 0 -30 3 -33 30 -33
25 0 35 8 60 47 45 71 45 77 3 143 -21 32 -40 59 -43 58 -3 0 -18 -7 -34 -15z"/>
<path d="M2654 5417 c-3 -10 -12 -16 -19 -13 -8 3 -15 0 -17 -6 -3 -8 -10 -8
-24 0 -20 10 -55 0 -42 -13 10 -10 111 -12 131 -3 25 12 23 54 -3 54 -11 0
-23 -9 -26 -19z"/>
<path d="M8206 5334 c-9 -24 -7 -97 4 -114 7 -10 10 7 10 58 0 73 -3 85 -14
56z"/>
<path d="M2558 5259 c-25 -14 -23 -75 3 -118 23 -38 35 -50 68 -69 20 -12 26
-11 42 4 16 14 19 31 19 95 l0 78 -37 10 c-47 13 -73 13 -95 0z"/>
<path d="M2728 5258 c-28 -9 -28 -11 -28 -94 0 -49 4 -84 10 -84 6 0 10 -9 10
-21 0 -11 9 -32 20 -46 l20 -26 0 142 c0 77 -1 141 -2 140 -2 0 -15 -5 -30
-11z"/>
<path d="M8487 5230 c-16 -17 -41 -33 -55 -36 -15 -3 -41 -10 -58 -15 l-31
-10 -7 -170 c-9 -190 -10 -184 63 -231 75 -47 109 -36 117 38 2 27 7 63 10 79
9 47 15 306 9 343 -3 17 -9 32 -13 32 -4 0 -20 -14 -35 -30z"/>
<path d="M8285 4588 c-4 -18 -23 -89 -42 -158 -19 -69 -36 -137 -38 -152 -2
-15 -8 -35 -13 -45 -5 -10 -15 -40 -21 -68 -7 -27 -21 -59 -31 -70 -20 -21
-81 -157 -74 -164 2 -2 12 7 23 20 11 13 20 20 21 16 1 -22 54 59 79 120 16
37 45 102 64 145 51 107 87 237 87 314 0 35 -4 64 -9 64 -5 0 -16 3 -24 6 -11
4 -17 -4 -22 -28z"/>
<path d="M2810 4506 c0 -35 5 -47 24 -59 l23 -16 -14 60 c-18 70 -33 77 -33
15z"/>
<path d="M8113 4458 c-15 -19 -22 -57 -13 -63 5 -3 14 11 20 31 13 38 9 53 -7
32z"/>
<path d="M2752 4398 c0 -7 -8 -38 -16 -68 -28 -98 -22 -164 28 -287 50 -124
115 -257 181 -368 25 -42 45 -78 45 -81 0 -9 119 -171 144 -195 42 -42 80 -54
127 -40 27 8 39 18 40 31 1 11 2 26 3 33 1 6 -19 39 -45 72 -55 72 -112 155
-106 155 3 0 36 -43 73 -96 38 -53 79 -104 92 -113 13 -9 36 -27 53 -39 16
-13 29 -21 29 -18 0 3 -36 53 -80 111 -44 59 -107 151 -141 206 -50 79 -67 99
-86 99 -12 0 -23 -2 -23 -5 0 -3 15 -29 33 -58 47 -73 49 -77 43 -77 -3 0 -24
31 -48 70 -33 53 -48 70 -66 70 -34 0 -222 188 -222 223 0 14 4 29 10 32 5 3
19 37 30 76 19 64 20 73 6 94 -8 13 -21 44 -27 70 -11 43 -10 47 10 61 23 17
21 28 -11 45 -19 10 -20 9 -14 -15 7 -27 6 -27 -19 -10 -14 9 -25 20 -25 25 0
14 -17 11 -18 -3z"/>
<path d="M8039 4241 c-26 -69 -54 -143 -63 -163 -12 -29 -13 -36 -2 -32 22 8
129 293 117 311 -3 6 -27 -46 -52 -116z"/>
<path d="M2910 4186 c-6 -20 -9 -46 -6 -58 3 -13 3 -17 0 -10 -4 8 -17 -11
-34 -45 l-27 -58 89 -85 c73 -71 95 -86 123 -88 19 -2 35 0 35 3 0 3 -20 45
-44 93 -24 48 -60 130 -81 182 -20 52 -38 96 -40 98 -2 2 -8 -13 -15 -32z m39
-161 c0 -5 -8 6 -19 25 -11 19 -19 40 -19 45 0 6 8 -6 19 -25 11 -19 19 -39
19 -45z m45 -92 c20 -40 34 -73 31 -73 -5 0 -75 136 -75 146 0 12 6 1 44 -73z"/>
<path d="M5002 3807 c-34 -36 -27 -55 8 -22 17 16 30 32 30 37 0 15 -16 8 -38
-15z"/>
<path d="M7821 3775 c-18 -33 -56 -93 -83 -133 -27 -41 -47 -77 -43 -80 8 -8
29 19 57 73 11 22 24 42 28 45 19 13 81 123 78 138 -2 11 -15 -5 -37 -43z"/>
<path d="M4765 3809 c-10 -15 -205 -522 -202 -525 5 -5 401 446 397 453 -3 5
-25 15 -50 24 -25 9 -66 25 -92 37 -27 11 -50 17 -53 11z"/>
<path d="M7975 3777 c-10 -16 -13 -34 -9 -56 6 -27 9 -30 16 -17 5 9 7 20 4
25 -3 4 -1 22 4 40 10 37 6 39 -15 8z"/>
<path d="M7898 3652 l-38 -57 32 -8 c18 -5 35 -4 40 1 14 14 22 87 12 105 -7
12 -17 4 -46 -41z"/>
<path d="M7844 3526 c-11 -29 1 -51 30 -54 31 -4 46 10 46 46 0 19 -5 22 -35
22 -22 0 -38 -6 -41 -14z"/>
<path d="M7527 3364 c-11 -14 -17 -28 -14 -30 7 -8 37 26 37 42 0 19 -2 18
-23 -12z"/>
<path d="M7742 3371 c-15 -4 -31 -23 -46 -51 -16 -33 -33 -50 -63 -65 -23 -11
-44 -29 -47 -40 -9 -30 -7 -105 2 -105 10 0 202 192 214 214 19 35 -12 59 -60
47z"/>
<path d="M7330 3159 c-58 -55 -100 -99 -95 -99 14 0 212 186 205 193 -3 2 -52
-40 -110 -94z"/>
<path d="M7411 3091 c-132 -126 -139 -145 -40 -109 30 11 75 28 101 37 25 9
50 20 55 24 4 5 8 44 8 88 0 43 0 79 0 78 0 0 -56 -53 -124 -118z"/>
<path d="M3580 3174 c0 -28 45 -71 53 -51 3 8 -7 27 -24 43 -26 25 -29 26 -29
8z"/>
<path d="M3560 3135 c-7 -9 -10 -26 -6 -42 4 -16 10 -40 13 -55 5 -25 9 -28
48 -28 57 0 64 20 26 68 -16 21 -38 45 -48 55 -18 16 -22 16 -33 2z"/>
<path d="M3522 3029 c2 -7 10 -15 17 -17 8 -3 12 1 9 9 -2 7 -10 15 -17 17 -8
3 -12 -1 -9 -9z"/>
<path d="M3720 2952 c-27 -9 -50 -35 -50 -57 0 -25 24 -48 100 -98 30 -20 65
-44 78 -53 22 -16 26 -16 73 6 49 23 51 24 96 7 l45 -17 -14 22 c-8 11 -34 27
-59 34 -80 24 -210 96 -225 125 -16 33 -24 38 -44 31z"/>
<path d="M3951 2651 c-9 -6 -9 -10 1 -18 23 -18 177 -103 187 -103 21 0 -2 29
-30 39 -16 6 -49 25 -72 44 -49 39 -69 48 -86 38z"/>
<path d="M4252 2613 c-7 -3 -18 -16 -23 -30 -8 -20 -4 -34 16 -69 35 -59 56
-69 111 -54 24 7 68 13 98 14 65 1 83 -12 127 -95 19 -36 39 -59 52 -62 12 -3
76 -19 142 -35 201 -51 185 -52 234 11 23 31 49 58 57 61 22 8 -72 100 -119
115 -31 10 -40 10 -59 -3 -29 -20 -71 -20 -110 0 -17 9 -53 22 -80 30 -27 9
-52 22 -55 30 -7 18 -46 39 -122 66 -53 19 -234 33 -269 21z"/>
<path d="M6372 2504 c-114 -38 -139 -51 -171 -85 -31 -32 -45 -39 -77 -39 -34
0 -46 -7 -105 -66 -65 -64 -67 -66 -135 -74 -46 -6 -72 -14 -81 -26 -18 -25
-16 -36 5 -30 9 3 51 10 92 15 173 23 524 107 656 157 55 21 91 56 105 104 9
30 9 46 1 65 -11 23 -16 25 -84 25 -60 0 -97 -9 -206 -46z"/>
<path d="M5897 2460 c-38 -7 -75 -30 -48 -30 8 0 11 -7 8 -20 -3 -11 -1 -20 4
-20 5 0 9 4 9 10 0 15 45 41 97 55 l48 13 -40 0 c-22 0 -57 -4 -78 -8z"/>
<path d="M5159 2411 c12 -17 29 -31 37 -31 8 0 29 -15 47 -34 36 -38 94 -70
147 -81 19 -4 53 -16 75 -27 83 -41 150 -57 202 -46 54 11 85 36 104 80 11 27
10 32 -8 47 -30 23 -53 73 -43 92 8 14 -16 16 -228 15 -130 0 -263 3 -296 8
l-59 8 22 -31z"/>
<path d="M4440 2390 c8 -5 22 -9 30 -9 10 0 8 3 -5 9 -27 12 -43 12 -25 0z"/>
<path d="M5913 2374 c-39 -30 -42 -44 -10 -44 24 0 67 37 67 58 0 19 -23 14
-57 -14z"/>
<path d="M5061 2283 c-40 -49 -39 -61 7 -68 20 -3 56 -10 80 -15 75 -18 119
31 70 78 -57 53 -116 55 -157 5z"/>
<path d="M5300 2243 c0 -2 7 -18 16 -34 15 -30 16 -31 72 -24 31 4 58 8 60 10
2 1 -31 14 -72 27 -42 13 -76 23 -76 21z"/>
</g>
</svg>
