<svg width="25" height="22" viewBox="0 0 25 22" fill="none" xmlns="http://www.w3.org/2000/svg">
<path d="M9.12398 3.32464e-05C6.57468 3.32464e-05 4.27043 0.487169 2.61824 1.28997C0.988083 2.08172 0.0261266 3.15287 0.000557366 4.2776C0.00180904 4.29012 0.00180904 4.30288 0.000557366 4.31515V4.32491C0.000557366 5.46636 0.965782 6.54732 2.61824 7.3501C4.14419 8.0918 6.23542 8.57947 8.55499 8.64952C9.99462 5.65663 13.0176 3.59468 16.5218 3.59468C17.0836 3.59468 17.6391 3.64475 18.1722 3.74638C17.9061 2.8189 17.0014 1.95602 15.6302 1.28993C13.978 0.487162 11.6735 0 9.12443 0L9.12398 3.32464e-05ZM16.5211 3.99275C11.8413 3.99275 8.06148 7.83077 8.06148 12.5851C8.06148 17.3397 11.8414 21.187 16.5211 21.187C21.2009 21.187 25 17.3397 25 12.5851C25 7.83064 21.2011 3.99275 16.5211 3.99275ZM16.635 5.51024C16.6413 5.50999 16.6478 5.50999 16.654 5.51024C16.7119 5.50123 16.7704 5.51825 16.8143 5.5568C16.8583 5.5951 16.8828 5.65093 16.8818 5.7095V7.58747C16.9294 7.58721 16.9667 7.57645 17.0145 7.5777C18.0411 7.60299 19.0912 7.95344 19.8217 8.77273C19.895 8.85659 19.8865 8.98401 19.8027 9.05735C19.7188 9.13069 19.5914 9.12218 19.518 9.03833C18.8479 8.28663 17.8579 7.97544 16.8816 7.97621V12.026C18.0176 12.3389 19.1969 12.7061 19.8407 13.7046C20.1724 14.2634 20.3872 14.967 20.1819 15.7438C19.9794 16.5108 19.4101 16.9889 18.7027 17.2327C18.1528 17.4224 17.5219 17.4812 16.8819 17.4509V18.7409V18.7404C16.8819 18.8505 16.7925 18.9396 16.6826 18.9396C16.5725 18.9396 16.4833 18.8505 16.4833 18.7404V17.4219C16.4293 17.4164 16.3857 17.4099 16.3316 17.4032C15.5071 17.3015 14.6983 17.0732 14.0747 16.7771C13.7628 16.6289 13.5017 16.4637 13.2969 16.284C13.0921 16.1042 12.9377 15.9005 12.8984 15.6676H12.8981C12.8754 15.6123 12.8786 15.5497 12.9074 15.4972C12.9364 15.4446 12.9875 15.4081 13.0463 15.3978C13.1054 15.3875 13.1657 15.4046 13.2108 15.4441C13.2556 15.4837 13.2801 15.5415 13.2774 15.6011C13.2937 15.6977 13.3775 15.8354 13.5432 15.9803C13.7087 16.1255 13.9565 16.2794 14.2449 16.4166C14.8214 16.6905 15.5867 16.9178 16.3694 17.0139C16.4074 17.0184 16.4452 17.0194 16.4833 17.0237V12.329C16.3378 12.2885 16.1906 12.2474 16.0472 12.2056C15.376 12.0101 14.7425 11.7941 14.2639 11.3996C13.7855 11.0053 13.4849 10.4208 13.5242 9.60724C13.5484 9.10534 13.8709 8.66579 14.3207 8.33634C14.7708 8.00716 15.3591 7.76885 16.0087 7.65347C16.1654 7.62593 16.3191 7.60966 16.483 7.59664V5.70919L16.4833 5.70944C16.4798 5.61532 16.5434 5.53196 16.635 5.51018L16.635 5.51024ZM0.000256193 5.67145V8.26055C0.00150781 8.27331 0.00150781 8.28608 0.000256193 8.29885C0.000256193 9.4403 0.965737 10.5307 2.61793 11.3338C3.94517 11.9784 5.70522 12.4154 7.66303 12.5666C7.66578 11.3145 7.9061 10.1212 8.36493 9.0385C6.06594 8.94839 4.00098 8.45649 2.44696 7.70127C1.32473 7.15581 0.466655 6.46267 0 5.67162L0.000256193 5.67145ZM16.4831 7.99524C16.3455 8.00701 16.2188 8.01852 16.0846 8.04256C15.4858 8.14869 14.9359 8.37524 14.5484 8.65886C14.1608 8.94273 13.9393 9.27766 13.9225 9.62613C13.888 10.341 14.1108 10.7669 14.5103 11.0963C14.9101 11.4254 15.5036 11.6352 16.1605 11.8265C16.2673 11.8578 16.3732 11.8911 16.4831 11.9214L16.4831 7.99524ZM0.000256193 9.65468V12.4904C0.00150781 12.5031 0.00150781 12.5157 0.000256193 12.5284C0.000256193 13.6699 0.965737 14.7606 2.61793 15.5633C4.18125 16.3231 6.33926 16.8032 8.7254 16.8533C8.10609 15.6882 7.72186 14.374 7.66328 12.9745C5.64818 12.8221 3.84084 12.3617 2.44722 11.6846C1.32499 11.1391 0.468898 10.4485 0.000256193 9.65492V9.65468ZM16.8817 12.4431V17.0521C17.4945 17.0824 18.0798 17.0316 18.5697 16.8623C19.1928 16.6478 19.6356 16.2711 19.8025 15.639C19.9755 14.9854 19.8128 14.4119 19.5182 13.913C19.5167 13.9105 19.5197 13.9062 19.5182 13.9032C18.9907 13.0911 17.9579 12.7482 16.8817 12.4428L16.8817 12.4431ZM0.000256193 13.8847V16.3599C0.000256193 17.5012 0.962789 18.5818 2.61793 19.3854C4.27282 20.1889 6.59335 20.6941 9.14291 20.6941C10.2135 20.6941 11.2234 20.601 12.1778 20.4382C10.8486 19.677 9.72587 18.5823 8.93412 17.2611C6.40885 17.2368 4.12812 16.7309 2.44696 15.9143C1.32473 15.3694 0.468642 14.6782 0 13.8849L0.000256193 13.8847Z" fill="url(#paint0_linear_20_221)"/>
<defs>
<linearGradient id="paint0_linear_20_221" x1="12.5" y1="0" x2="12.5" y2="21.187" gradientUnits="userSpaceOnUse">
<stop stop-color="#DBEEFF"/>
<stop offset="1" stop-color="#168FFF"/>
</linearGradient>
</defs>
</svg>
