<svg width="25" height="25" viewBox="0 0 25 25" fill="none" xmlns="http://www.w3.org/2000/svg">
<path d="M3.37816 1.75362C3.82591 1.41517 4.29475 1.10269 4.7841 0.826664L4.37792 0.0976562C3.85188 0.39454 3.35199 0.722455 2.87306 1.08704C1.79523 1.90996 0.857975 2.89411 0.160156 3.93034L0.852682 4.3937C1.49837 3.43049 2.37319 2.51913 3.37817 1.75359L3.37816 1.75362Z" fill="url(#paint0_linear_20_260)"/>
<path d="M22.9707 7.26976C23.1009 7.4259 23.231 7.58732 23.356 7.74874L24.0225 7.24359C23.8923 7.07183 23.7518 6.89986 23.6111 6.73316C22.2832 5.15529 20.6376 3.95231 18.9766 3.35352L18.6953 4.13995C20.216 4.69194 21.7366 5.8012 22.9707 7.2698L22.9707 7.26976Z" fill="url(#paint1_linear_20_260)"/>
<path d="M18.0011 3.07609C17.7042 3.01363 17.4076 2.97184 17.1107 2.95117L17.0586 3.78444C17.319 3.80006 17.5794 3.83656 17.8344 3.89374L18.0011 3.07609Z" fill="url(#paint2_linear_20_260)"/>
<path d="M17.9673 21.6674H17.9102L17.9205 22.5006H17.9777C18.2433 22.4954 18.514 22.485 18.7797 22.4641L18.712 21.6309C18.4674 21.6465 18.2174 21.6621 17.9673 21.6674H17.9673Z" fill="url(#paint3_linear_20_260)"/>
<path d="M19.5195 21.5358L19.6394 22.3585C21.0974 22.1396 22.4461 21.6763 23.5449 21.0044L23.1127 20.291C22.1128 20.9057 20.8683 21.3378 19.5195 21.5357L19.5195 21.5358Z" fill="url(#paint4_linear_20_260)"/>
<path d="M20.8985 11.351C20.8725 11.351 20.8516 11.3457 20.8255 11.3457C20.3672 11.3457 19.9922 11.7207 19.9922 12.179C19.9922 12.6373 20.3671 13.0122 20.8255 13.0122C21.0234 13.0122 21.2108 12.9445 21.3618 12.8196C21.7159 12.5227 21.7577 11.9969 21.4661 11.6479C21.3203 11.4759 21.1171 11.3719 20.8985 11.351V11.351Z" fill="url(#paint5_linear_20_260)"/>
<path d="M16.6836 12.1693C16.6577 12.1693 16.6368 12.1641 16.6106 12.1641C16.1473 12.1641 15.7773 12.539 15.7773 12.9973C15.7773 13.4607 16.1523 13.8306 16.6106 13.8306C17.074 13.8306 17.4439 13.4556 17.4439 12.9973C17.4492 12.5703 17.116 12.2057 16.6836 12.1694L16.6836 12.1693Z" fill="url(#paint6_linear_20_260)"/>
<path d="M24.9283 13.6165C24.6782 11.7888 23.7671 9.85686 22.3559 8.18001C20.5333 6.00858 18.1745 4.613 16.0184 4.40976C15.8986 4.11816 15.7372 3.84216 15.5445 3.58708L14.0291 1.59794C13.1283 0.415901 11.5816 -0.141397 9.67563 0.0305948C7.83738 0.192014 5.86384 1.01469 4.11926 2.34254C2.38015 3.66533 1.06265 5.35254 0.422259 7.08129C-0.244314 8.87778 -0.119394 10.5181 0.7816 11.6951L1.65113 12.8356C1.47937 13.0751 1.33357 13.3304 1.22405 13.6012L0.276215 15.9131C-0.28611 17.2878 0.0158352 18.9022 1.13015 20.4643C2.20291 21.9691 3.91101 23.2501 5.93662 24.0834C7.41558 24.6875 8.94639 25 10.3682 25C10.8836 25 11.3941 24.9584 11.8992 24.8698C13.7843 24.5366 15.133 23.5941 15.6954 22.2245L16.5858 20.0477C16.7419 20.1102 16.9034 20.1676 17.0597 20.2144C17.6898 20.4227 18.346 20.532 19.0073 20.5373C20.0332 20.5373 20.9392 20.2353 21.6527 19.6365L23.569 18.0274C24.7042 17.0848 25.1885 15.5122 24.9281 13.6165L24.9283 13.6165ZM14.816 3.99344L14.889 4.08712C15.4357 4.80583 15.618 5.76397 15.4201 6.84704L14.5556 5.71184C14.7274 5.16007 14.8107 4.58193 14.816 3.99344L14.816 3.99344ZM14.2119 6.64408L15.1388 7.86266C15.1335 7.87827 15.1285 7.89389 15.1232 7.9095C14.9097 8.47183 14.6337 9.01346 14.3056 9.51862L13.3215 8.22725C13.6703 7.73244 13.9672 7.20132 14.2119 6.64408L14.2119 6.64408ZM16.1957 17.1578L14.9407 18.2149C14.2532 17.7254 13.6232 17.1578 13.0608 16.5277L14.3365 15.4549C14.8991 16.085 15.5188 16.6579 16.1957 17.1577L16.1957 17.1578ZM13.8004 10.2269C13.2796 10.8882 12.6808 11.4923 12.0246 12.0234L11.0143 10.7008C11.3736 10.4092 12.6025 9.1698 12.8005 8.92501L13.8004 10.2269ZM11.327 15.6634C11.5717 16.028 11.8321 16.3768 12.1134 16.71C11.926 17.1371 11.5718 17.465 11.1343 17.6161C11.1499 17.6473 11.1656 17.6785 11.1812 17.715C11.5352 18.5639 11.1396 19.5428 10.2907 19.897C9.88457 20.0688 9.42629 20.0688 9.01503 19.9023L8.62973 19.7462L8.31218 20.5168L7.54156 20.1992L7.85912 19.4286L7.08282 19.1109L6.76526 19.8815L5.99465 19.5639L6.31221 18.7933L5.5416 18.4757L5.85915 17.7051L6.62977 18.0227L7.84305 15.0598C8.18678 14.9764 8.53051 14.8774 8.86369 14.7629L8.34821 16.023L10.2749 16.8094C10.702 16.9812 11.1863 16.7782 11.3633 16.3564C11.4519 16.1321 11.4363 15.877 11.327 15.6634L11.327 15.6634ZM5.59861 13.2107C6.19746 13.1221 6.78595 12.9763 7.35884 12.7733L8.34294 14.0647C7.77004 14.2521 7.17649 14.3719 6.5777 14.4293C6.56209 14.4293 6.54647 14.4293 6.53086 14.4346L5.59861 13.2107ZM9.16039 13.7577L8.16571 12.4507C8.93632 12.107 9.67057 11.6904 10.3528 11.2009L11.3631 12.5235C10.6758 13.0181 9.93624 13.4295 9.16039 13.7577ZM2.71873 9.75827L5.25987 4.15528C5.31704 4.03037 5.4369 3.93647 5.57237 3.9158L11.6492 2.95236C11.8784 2.91586 12.0919 3.07222 12.1282 3.29609C12.1385 3.37416 12.1282 3.45751 12.097 3.53558L9.55582 9.13879C9.49865 9.26371 9.37879 9.3576 9.24332 9.37828L3.16141 10.3415C2.93226 10.378 2.71872 10.2216 2.68243 9.99776C2.67188 9.91463 2.68221 9.83128 2.71872 9.75827H2.71873ZM5.47864 14.4242C4.37992 14.3253 3.5051 13.8982 2.95816 13.1797L2.88515 13.0861C3.40591 13.2319 3.94226 13.2996 4.47868 13.2943H4.61414L5.47864 14.4242ZM1.04711 16.2364L1.09396 16.1271C1.24504 16.6894 1.47925 17.231 1.79178 17.7257L1.25034 19.0379C0.776423 18.0435 0.703415 17.0697 1.04714 16.2364L1.04711 16.2364ZM3.01559 21.3239C2.56256 20.923 2.16165 20.475 1.80737 19.9855C1.79703 19.9699 1.78648 19.9595 1.78142 19.9439L2.35938 18.5275C2.73961 19.0014 3.16647 19.4335 3.63003 19.8241L3.01559 21.3239ZM5.86924 23.1518C5.09863 22.8081 4.3694 22.3812 3.69252 21.8761L4.31225 20.3556C4.99971 20.8451 5.72872 21.267 6.49933 21.6054L5.86924 23.1518ZM9.08748 24.0838C8.24914 23.9693 7.43152 23.761 6.64002 23.4641L7.27006 21.9227C8.05649 22.2196 8.87389 22.4331 9.70716 22.5633L9.08748 24.0838ZM11.8004 24.0473C11.7848 24.0526 11.7692 24.0526 11.7535 24.0577C11.16 24.1619 10.5559 24.1982 9.95177 24.167L10.5662 22.6671C10.8163 22.688 11.0661 22.6931 11.3109 22.6931C11.6702 22.6931 12.0243 22.6722 12.3783 22.6306L11.8004 24.0473ZM12.0295 15.2107C12.0086 15.1795 11.988 15.1483 11.9671 15.1221H11.9724H11.9671C11.6599 14.6588 11.3839 14.1743 11.1495 13.6693C11.5088 13.4505 11.8576 13.206 12.2013 12.9456C12.29 12.8779 12.3784 12.8102 12.467 12.7374C12.842 13.4767 13.2846 14.1745 13.8001 14.8204L12.5244 15.8932C12.3525 15.6691 12.186 15.4399 12.0296 15.2108L12.0295 15.2107ZM14.925 21.9125C14.5812 22.7508 13.847 23.3862 12.816 23.7715L13.3576 22.454C13.9252 22.3185 14.4719 22.0999 14.972 21.8031L14.925 21.9125ZM17.315 19.4286C16.7421 19.2412 16.1902 18.9912 15.6694 18.6892L16.9089 17.6477C17.4243 17.9705 17.966 18.2412 18.5283 18.4601L17.3567 19.4442C17.3465 19.4391 17.3309 19.4338 17.3151 19.4285L17.315 19.4286ZM21.1164 19.0068C20.4239 19.59 19.4761 19.8139 18.3826 19.668L19.471 18.7515C19.9449 18.8713 20.4292 18.9338 20.9187 18.9338C21.0177 18.9338 21.1114 18.9285 21.205 18.9234L21.1164 19.0068ZM22.4861 12.3258C22.4496 12.7685 22.236 13.1747 21.8976 13.4557C21.6007 13.7058 21.2207 13.8463 20.8301 13.8463C20.7833 13.8463 20.7311 13.8463 20.6843 13.841C19.8979 13.7733 19.2628 13.1589 19.1742 12.3727L18.3097 12.1226L18.1223 12.2788C18.5182 13.1067 18.1692 14.1014 17.3359 14.497C16.5026 14.8929 15.5132 14.5439 15.1176 13.7106C14.7218 12.8826 15.0708 11.8879 15.9041 11.4923C16.4508 11.2319 17.0967 11.2893 17.586 11.6381L17.7733 11.482L17.6744 10.5863C16.7943 10.3259 16.2944 9.39895 16.5548 8.51883C16.8152 7.63872 17.7421 7.13885 18.6222 7.39923C19.5023 7.65961 20.0022 8.58656 19.7418 9.46667C19.5701 10.0446 19.1012 10.482 18.5129 10.6122L18.591 11.3309L19.2835 11.5339C19.6376 10.6851 20.6167 10.2842 21.4655 10.6382C22.1372 10.925 22.5486 11.6072 22.4862 12.3259L22.4861 12.3258Z" fill="url(#paint7_linear_20_260)"/>
<path d="M9.95656 17.5853L8.02986 16.7988L7.39453 18.3402L9.32123 19.1267C9.74831 19.2984 10.2326 19.0954 10.4096 18.6684C10.5866 18.2466 10.3784 17.7623 9.95657 17.5853L9.95656 17.5853Z" fill="url(#paint8_linear_20_260)"/>
<path d="M18.9769 9.06558C19.0185 8.60728 18.675 8.20112 18.2167 8.16481C17.7584 8.1283 17.3522 8.46675 17.3159 8.92506C17.2743 9.38336 17.6179 9.78952 18.0762 9.82583C18.295 9.84672 18.5136 9.77371 18.6853 9.63319C18.852 9.48739 18.956 9.28418 18.9769 9.06559L18.9769 9.06558Z" fill="url(#paint9_linear_20_260)"/>
<path d="M5.41522 5.82617L4.16016 8.59645L5.63382 7.47161L5.41522 5.82617Z" fill="url(#paint10_linear_20_260)"/>
<path d="M4.66797 9.25766L7.67267 8.78374L6.14164 8.13281L4.66797 9.25766Z" fill="url(#paint11_linear_20_260)"/>
<path d="M10.1425 4.03516L6.10156 4.67555L6.39845 6.88875L10.1425 4.03516Z" fill="url(#paint12_linear_20_260)"/>
<path d="M8.96311 8.42379L10.6503 4.69531L6.90625 7.5542L8.96311 8.42379Z" fill="url(#paint13_linear_20_260)"/>
<path d="M11.9727 15.1172C11.9935 15.1484 12.0092 15.1796 12.0298 15.2109C12.0092 15.1796 11.9933 15.1484 11.9727 15.1172Z" fill="url(#paint14_linear_20_260)"/>
<defs>
<linearGradient id="paint0_linear_20_260" x1="2.47213" y1="0.0976562" x2="2.47213" y2="4.3937" gradientUnits="userSpaceOnUse">
<stop stop-color="#DBEEFF"/>
<stop offset="1" stop-color="#168FFF"/>
</linearGradient>
<linearGradient id="paint1_linear_20_260" x1="21.3589" y1="3.35352" x2="21.3589" y2="7.74874" gradientUnits="userSpaceOnUse">
<stop stop-color="#DBEEFF"/>
<stop offset="1" stop-color="#168FFF"/>
</linearGradient>
<linearGradient id="paint2_linear_20_260" x1="17.5299" y1="2.95117" x2="17.5299" y2="3.89374" gradientUnits="userSpaceOnUse">
<stop stop-color="#DBEEFF"/>
<stop offset="1" stop-color="#168FFF"/>
</linearGradient>
<linearGradient id="paint3_linear_20_260" x1="18.3449" y1="21.6309" x2="18.3449" y2="22.5006" gradientUnits="userSpaceOnUse">
<stop stop-color="#DBEEFF"/>
<stop offset="1" stop-color="#168FFF"/>
</linearGradient>
<linearGradient id="paint4_linear_20_260" x1="21.5322" y1="20.291" x2="21.5322" y2="22.3585" gradientUnits="userSpaceOnUse">
<stop stop-color="#DBEEFF"/>
<stop offset="1" stop-color="#168FFF"/>
</linearGradient>
<linearGradient id="paint5_linear_20_260" x1="20.8257" y1="11.3457" x2="20.8257" y2="13.0122" gradientUnits="userSpaceOnUse">
<stop stop-color="#DBEEFF"/>
<stop offset="1" stop-color="#168FFF"/>
</linearGradient>
<linearGradient id="paint6_linear_20_260" x1="16.6106" y1="12.1641" x2="16.6106" y2="13.8306" gradientUnits="userSpaceOnUse">
<stop stop-color="#DBEEFF"/>
<stop offset="1" stop-color="#168FFF"/>
</linearGradient>
<linearGradient id="paint7_linear_20_260" x1="12.4984" y1="0" x2="12.4984" y2="25" gradientUnits="userSpaceOnUse">
<stop stop-color="#DBEEFF"/>
<stop offset="1" stop-color="#168FFF"/>
</linearGradient>
<linearGradient id="paint8_linear_20_260" x1="8.9337" y1="16.7988" x2="8.9337" y2="19.1876" gradientUnits="userSpaceOnUse">
<stop stop-color="#DBEEFF"/>
<stop offset="1" stop-color="#168FFF"/>
</linearGradient>
<linearGradient id="paint9_linear_20_260" x1="18.1464" y1="8.16211" x2="18.1464" y2="9.82936" gradientUnits="userSpaceOnUse">
<stop stop-color="#DBEEFF"/>
<stop offset="1" stop-color="#168FFF"/>
</linearGradient>
<linearGradient id="paint10_linear_20_260" x1="4.89699" y1="5.82617" x2="4.89699" y2="8.59645" gradientUnits="userSpaceOnUse">
<stop stop-color="#DBEEFF"/>
<stop offset="1" stop-color="#168FFF"/>
</linearGradient>
<linearGradient id="paint11_linear_20_260" x1="6.17032" y1="8.13281" x2="6.17032" y2="9.25766" gradientUnits="userSpaceOnUse">
<stop stop-color="#DBEEFF"/>
<stop offset="1" stop-color="#168FFF"/>
</linearGradient>
<linearGradient id="paint12_linear_20_260" x1="8.12203" y1="4.03516" x2="8.12203" y2="6.88875" gradientUnits="userSpaceOnUse">
<stop stop-color="#DBEEFF"/>
<stop offset="1" stop-color="#168FFF"/>
</linearGradient>
<linearGradient id="paint13_linear_20_260" x1="8.77828" y1="4.69531" x2="8.77828" y2="8.42379" gradientUnits="userSpaceOnUse">
<stop stop-color="#DBEEFF"/>
<stop offset="1" stop-color="#168FFF"/>
</linearGradient>
<linearGradient id="paint14_linear_20_260" x1="12.0012" y1="15.1172" x2="12.0012" y2="15.2109" gradientUnits="userSpaceOnUse">
<stop stop-color="#DBEEFF"/>
<stop offset="1" stop-color="#168FFF"/>
</linearGradient>
</defs>
</svg>
