<svg width="25" height="25" viewBox="0 0 25 25" fill="none" xmlns="http://www.w3.org/2000/svg">
<path d="M22.5725 12.9166C22.7044 13.2901 23.0058 13.5788 23.3847 13.6947C23.7635 13.8107 24.1751 13.7402 24.4934 13.5045C24.812 13.269 25 12.8961 25 12.4999C25 12.1037 24.812 11.7311 24.4934 11.4956C24.1751 11.2599 23.7635 11.1893 23.3847 11.3052C23.0059 11.4212 22.7044 11.7099 22.5725 12.0835H19.9968V8.50741L21.0022 7.50199H21.7394C21.8716 7.87554 22.173 8.16446 22.5518 8.2803C22.9307 8.39639 23.342 8.32581 23.6606 8.09012C23.9789 7.85443 24.1669 7.48173 24.1669 7.08555C24.1669 6.68935 23.979 6.31669 23.6606 6.08097C23.342 5.8455 22.9306 5.77492 22.5518 5.89079C22.173 6.00666 21.8716 6.29556 21.7394 6.6691H20.8299C20.7193 6.6691 20.6135 6.71307 20.5355 6.79113L19.5034 7.82316L17.0814 6.54071V4.17017H18.4076H18.4074C18.5395 4.54371 18.841 4.83241 19.2198 4.94847C19.5986 5.06434 20.01 4.99376 20.3286 4.75807C20.6471 4.5226 20.8349 4.14991 20.8349 3.75373C20.8349 3.35754 20.6471 2.98465 20.3286 2.74915C20.01 2.51346 19.5986 2.44289 19.2198 2.55875C18.841 2.67484 18.5395 2.96352 18.4074 3.33706H16.665C16.4348 3.33706 16.2483 3.5235 16.2483 3.7537V6.09988L12.9166 4.33681V2.42751C13.2901 2.29537 13.5788 1.99417 13.6946 1.6151C13.8107 1.23627 13.7402 0.824917 13.5045 0.506344C13.269 0.187986 12.8961 0 12.4999 0C12.1037 0 11.731 0.187981 11.4955 0.506344C11.2599 0.824928 11.1893 1.2363 11.3051 1.6151C11.4212 1.99414 11.7099 2.29536 12.0835 2.42751V4.33681L8.75145 6.10055V3.75375C8.75145 3.64317 8.70769 3.53719 8.62964 3.45914C8.55137 3.38109 8.44562 3.33711 8.33502 3.33711H6.59239C6.46047 2.96357 6.15904 2.67486 5.7802 2.5588C5.40137 2.44294 4.98979 2.51351 4.67144 2.74921C4.35286 2.98468 4.16488 3.35759 4.16488 3.75378C4.16488 4.14997 4.35286 4.52263 4.67144 4.75812C4.9898 4.99382 5.4014 5.06439 5.7802 4.94852C6.15902 4.83244 6.46046 4.54376 6.59239 4.17022H7.91857V6.54077L5.49681 7.82322L4.46477 6.79118H4.46455C4.3865 6.71313 4.28052 6.66915 4.17015 6.66915H3.26059C3.12845 6.29561 2.82702 6.00668 2.44817 5.89084C2.06935 5.77498 1.65799 5.84555 1.33942 6.08103C1.02083 6.31672 0.833071 6.68941 0.833071 7.0856C0.833071 7.48179 1.02083 7.85445 1.33942 8.09017C1.658 8.32589 2.06937 8.39644 2.44817 8.28035C2.827 8.16448 3.12843 7.87558 3.26059 7.50204H3.9978L5.00322 8.50746V12.0835H2.42751C2.29537 11.71 1.99417 11.4213 1.6151 11.3052C1.23627 11.1893 0.824916 11.2599 0.506344 11.4956C0.187985 11.7311 0 12.1038 0 12.5C0 12.8961 0.18798 13.269 0.506344 13.5045C0.824927 13.7402 1.2363 13.8108 1.6151 13.6947C1.99414 13.5788 2.29536 13.2902 2.42751 12.9166H5.00322V16.4927L3.9978 17.4979H3.26059C3.12845 17.1243 2.82702 16.8356 2.44817 16.7196C2.06935 16.6037 1.65799 16.6743 1.33942 16.91C1.02083 17.1454 0.833071 17.5183 0.833071 17.9145C0.833071 18.3107 1.02083 18.6834 1.33942 18.9189C1.658 19.1546 2.06937 19.2252 2.44817 19.1093C2.827 18.9932 3.12843 18.7045 3.26059 18.331H4.17015C4.28052 18.331 4.3865 18.287 4.46455 18.209L5.49659 17.1769L7.91858 18.4591V20.8299H6.59239C6.46047 20.4564 6.15905 20.1674 5.7802 20.0516C5.40138 19.9357 4.9898 20.0063 4.67145 20.2418C4.35287 20.4775 4.16489 20.8502 4.16489 21.2464C4.16489 21.6426 4.35287 22.0152 4.67145 22.2509C4.98981 22.4866 5.40141 22.5572 5.7802 22.4411C6.15903 22.3252 6.46046 22.0363 6.59239 21.6628H8.33503C8.44562 21.6628 8.55138 21.6191 8.62965 21.541C8.7077 21.4627 8.75145 21.357 8.75145 21.2464V18.9002L12.0835 20.6633V22.5717C11.7099 22.7038 11.4212 23.005 11.3052 23.3839C11.1893 23.7629 11.2599 24.1743 11.4956 24.4926C11.731 24.8112 12.1037 24.9992 12.4999 24.9992C12.8961 24.9992 13.269 24.8112 13.5045 24.4926C13.7402 24.1742 13.8107 23.7629 13.6947 23.3839C13.5788 23.005 13.2901 22.7038 12.9166 22.5717V20.6633L16.2486 18.8995L16.2484 21.2463C16.2484 21.3569 16.2923 21.4627 16.3704 21.5409C16.4484 21.619 16.5544 21.6628 16.665 21.6628H18.4076H18.4074C18.5396 22.0363 18.841 22.3252 19.2198 22.4411C19.5987 22.5571 20.01 22.4866 20.3286 22.2509C20.6472 22.0152 20.8349 21.6425 20.8349 21.2463C20.8349 20.8501 20.6472 20.4774 20.3286 20.2417C20.01 20.0063 19.5986 19.9357 19.2198 20.0515C18.841 20.1674 18.5396 20.4563 18.4074 20.8299H17.0814V18.4591L19.5032 17.1766L20.5354 18.2089C20.6135 18.2869 20.7192 18.3309 20.8298 18.3309H21.7394C21.8715 18.7045 22.173 18.9932 22.5518 19.1092C22.9306 19.2251 23.342 19.1545 23.6606 18.9188C23.9789 18.6834 24.1669 18.3107 24.1669 17.9145C24.1669 17.5183 23.9789 17.1454 23.6606 16.9099C23.342 16.6742 22.9306 16.6036 22.5518 16.7195C22.173 16.8356 21.8715 17.1243 21.7394 17.4978H21.0022L19.9968 16.4924V12.9166L22.5725 12.9166ZM23.7452 12.0835C23.9137 12.0835 24.0656 12.1851 24.13 12.3405C24.1944 12.4962 24.1588 12.6754 24.0399 12.7945C23.9207 12.9137 23.7415 12.9493 23.5858 12.8847C23.4302 12.8203 23.3288 12.6686 23.3288 12.4999C23.3288 12.27 23.5153 12.0835 23.7452 12.0835L23.7452 12.0835ZM22.9122 6.66918C23.0808 6.66918 23.2325 6.77054 23.2971 6.9262C23.3616 7.08186 23.326 7.26105 23.2068 7.38022C23.0876 7.49917 22.9084 7.53478 22.753 7.47037C22.5973 7.40595 22.4957 7.25402 22.4957 7.08561C22.4957 6.85563 22.6822 6.66919 22.9122 6.66919L22.9122 6.66918ZM19.5802 3.33718H19.5804C19.7488 3.33718 19.9007 3.43876 19.9651 3.59442C20.0296 3.74986 19.9939 3.92905 19.8748 4.04821C19.7558 4.16738 19.5766 4.203 19.421 4.13858C19.2653 4.07394 19.164 3.92223 19.164 3.75382C19.164 3.52363 19.3504 3.33718 19.5804 3.33718L19.5802 3.33718ZM5.41946 4.17025C5.25105 4.17025 5.09912 4.06867 5.03471 3.91301C4.97029 3.75757 5.0059 3.57838 5.12485 3.45922C5.24402 3.34005 5.42321 3.30443 5.57887 3.36885C5.73453 3.43349 5.83589 3.5852 5.83589 3.75383C5.83589 3.8642 5.79213 3.97017 5.71386 4.04822C5.63581 4.12628 5.52984 4.17025 5.41946 4.17025ZM2.08746 7.50203C1.91904 7.50203 1.76712 7.40067 1.7027 7.24501C1.63828 7.08935 1.6739 6.91016 1.79307 6.79122C1.91223 6.67205 2.0912 6.63643 2.24686 6.70085C2.40252 6.76527 2.5041 6.9172 2.5041 7.08561C2.5041 7.1962 2.46013 7.30195 2.38208 7.38022C2.30403 7.45827 2.19805 7.50203 2.08746 7.50203ZM1.25461 12.9166C1.08598 12.9166 0.934272 12.815 0.869635 12.6593C0.805217 12.5037 0.840833 12.3247 0.96 12.2055C1.07917 12.0864 1.25836 12.0508 1.41402 12.1152C1.56946 12.1796 1.67104 12.3315 1.67104 12.4999C1.67104 12.6105 1.62706 12.7165 1.54901 12.7945C1.47096 12.8726 1.36499 12.9166 1.25461 12.9166ZM2.08746 18.3309C1.91904 18.3309 1.76712 18.2293 1.7027 18.0737C1.63828 17.9182 1.6739 17.739 1.79307 17.6199C1.91223 17.5007 2.0912 17.4651 2.24686 17.5295C2.40252 17.5941 2.5041 17.7458 2.5041 17.9145C2.5041 18.0248 2.46013 18.1308 2.38208 18.2089C2.30403 18.2869 2.19805 18.3309 2.08746 18.3309ZM5.41946 21.6629V21.6627C5.25105 21.6627 5.09912 21.5613 5.03471 21.4057C4.97029 21.25 5.0059 21.0708 5.12485 20.9519C5.24402 20.8327 5.42321 20.7971 5.57887 20.8615C5.73453 20.9259 5.83589 21.0778 5.83589 21.2463C5.83589 21.3568 5.79213 21.4626 5.71386 21.5409C5.63581 21.6189 5.52984 21.6627 5.41946 21.6627V21.6629ZM19.5802 20.8298C19.7486 20.8298 19.9005 20.9312 19.9649 21.0868C20.0293 21.2425 19.9937 21.4217 19.8746 21.5409C19.7556 21.6598 19.5764 21.6954 19.4208 21.631C19.2651 21.5666 19.1637 21.4147 19.1637 21.2463C19.1637 21.0163 19.3502 20.8298 19.5802 20.8298L19.5802 20.8298ZM22.9122 17.4978H22.912C23.0806 17.4978 23.2323 17.5994 23.2969 17.7551C23.3613 17.9107 23.3257 18.0897 23.2066 18.2089C23.0874 18.328 22.9082 18.3636 22.7528 18.2992C22.5971 18.2346 22.4955 18.0829 22.4955 17.9145C22.4955 17.6843 22.682 17.4978 22.9119 17.4978L22.9122 17.4978ZM12.4995 0.838076C12.6681 0.838076 12.8198 0.939653 12.8842 1.09531C12.9489 1.25098 12.9133 1.42994 12.7941 1.54911C12.6749 1.66828 12.4957 1.70389 12.3401 1.63948C12.1846 1.57506 12.0831 1.42313 12.0831 1.25472C12.0831 1.02453 12.2695 0.838081 12.4995 0.838081L12.4995 0.838076ZM12.4995 24.1614C12.3311 24.1614 12.1791 24.06 12.1147 23.9044C12.0503 23.7487 12.0859 23.5695 12.2051 23.4506C12.3243 23.3314 12.5032 23.2958 12.6589 23.3602C12.8145 23.4246 12.9161 23.5766 12.9161 23.745C12.9161 23.8556 12.8721 23.9613 12.7941 24.0396C12.716 24.1176 12.6101 24.1614 12.4995 24.1614ZM19.1636 16.4149L12.4995 19.9422L5.83592 16.4149V8.58512L12.4995 5.05696L19.1636 8.58512V16.4149Z" fill="url(#paint0_linear_20_209)"/>
<path d="M12.3152 5.8798L6.48411 8.79519C6.34296 8.86576 6.25369 9.01021 6.25391 9.16807V15.8316C6.25303 15.9902 6.3423 16.1355 6.48411 16.2065L12.3152 19.1219C12.4324 19.1804 12.5703 19.1804 12.6874 19.1219L18.5186 16.2065C18.6604 16.1355 18.7496 15.9902 18.7487 15.8316V9.16807C18.749 9.01021 18.6597 8.86576 18.5186 8.79519L12.6874 5.8798C12.5703 5.82132 12.4324 5.82132 12.3152 5.8798ZM17.9158 9.4253V15.5744L12.5015 18.2816L7.08714 15.5744L7.08692 9.4253L12.5012 6.71811L17.9158 9.4253Z" fill="url(#paint1_linear_20_209)"/>
<path d="M9.58389 12.4009L8.70928 10.647C8.6242 10.4716 8.42896 10.3786 8.239 10.4232C8.04925 10.4678 7.91579 10.6382 7.918 10.8333V14.5817H8.75107L8.75085 12.5974L9.62765 14.3513C9.71384 14.5243 9.90776 14.6153 10.096 14.5709C10.2842 14.5265 10.4172 14.3585 10.417 14.1653V10.4168H9.58389L9.58389 12.4009Z" fill="url(#paint2_linear_20_209)"/>
<path d="M11.25 10.8344V14.5829H12.0831V12.917H13.3325V12.0839H12.0831V11.2508H13.749V10.418H11.6667C11.4367 10.418 11.25 10.6044 11.25 10.8344L11.25 10.8344Z" fill="url(#paint3_linear_20_209)"/>
<path d="M15.415 14.5828H16.2479V11.2508H17.081V10.418H14.582V11.2508H15.4151L15.415 14.5828Z" fill="url(#paint4_linear_20_209)"/>
<defs>
<linearGradient id="paint0_linear_20_209" x1="12.5" y1="0" x2="12.5" y2="24.9992" gradientUnits="userSpaceOnUse">
<stop stop-color="#DBEEFF"/>
<stop offset="1" stop-color="#168FFF"/>
</linearGradient>
<linearGradient id="paint1_linear_20_209" x1="12.5013" y1="5.83594" x2="12.5013" y2="19.1658" gradientUnits="userSpaceOnUse">
<stop stop-color="#DBEEFF"/>
<stop offset="1" stop-color="#168FFF"/>
</linearGradient>
<linearGradient id="paint2_linear_20_209" x1="9.16746" y1="10.4121" x2="9.16746" y2="14.5821" gradientUnits="userSpaceOnUse">
<stop stop-color="#DBEEFF"/>
<stop offset="1" stop-color="#168FFF"/>
</linearGradient>
<linearGradient id="paint3_linear_20_209" x1="12.4995" y1="10.418" x2="12.4995" y2="14.5829" gradientUnits="userSpaceOnUse">
<stop stop-color="#DBEEFF"/>
<stop offset="1" stop-color="#168FFF"/>
</linearGradient>
<linearGradient id="paint4_linear_20_209" x1="15.8315" y1="10.418" x2="15.8315" y2="14.5828" gradientUnits="userSpaceOnUse">
<stop stop-color="#DBEEFF"/>
<stop offset="1" stop-color="#168FFF"/>
</linearGradient>
</defs>
</svg>
