<svg width="25" height="25" viewBox="0 0 25 25" fill="none" xmlns="http://www.w3.org/2000/svg">
<path fill-rule="evenodd" clip-rule="evenodd" d="M2.89737 6.27093C1.27782 6.38642 0 7.73679 0 9.38574V21.8771C0 23.6018 1.39799 25 3.12272 25H21.8597C23.5844 25 24.9824 23.6018 24.9824 21.8771V9.38574C24.9824 7.66101 23.5844 6.2628 21.8597 6.2628V3.1259C21.8597 0.903217 19.6031 -0.607918 17.5478 0.238427L2.89737 6.27093ZM8.38466 6.26278H19.7781V3.12588C19.7781 2.38493 19.0257 1.88136 18.3406 2.16337L8.38466 6.26278ZM14.5732 15.6313C14.5732 13.9063 15.9714 12.5083 17.6961 12.5083C19.4208 12.5083 20.8188 13.9063 20.8188 15.6313C20.8188 17.356 19.4208 18.754 17.6961 18.754C15.9714 18.754 14.5732 17.356 14.5732 15.6313Z" fill="url(#paint0_linear_20_252)"/>
<defs>
<linearGradient id="paint0_linear_20_252" x1="12.4912" y1="0" x2="12.4912" y2="25" gradientUnits="userSpaceOnUse">
<stop stop-color="#DBEEFF"/>
<stop offset="1" stop-color="#168FFF"/>
</linearGradient>
</defs>
</svg>
