<?xml version="1.0" encoding="utf-8"?>
<!-- Generator: Adobe Illustrator 25.2.3, SVG Export Plug-In . SVG Version: 6.00 Build 0)  -->
<svg version="1.1" id="Layer_1" xmlns="http://www.w3.org/2000/svg" xmlns:xlink="http://www.w3.org/1999/xlink" x="0px" y="0px"
	 viewBox="0 0 495.46 111.65" style="enable-background:new 0 0 495.46 111.65;" xml:space="preserve">
<style type="text/css">
	.st0{fill-rule:evenodd;clip-rule:evenodd;fill:#00AEEF;}
</style>
<g>
	<g>
		<path d="M56.6,77.54L82.96,1.55h30.24L72.11,110.1H41.09L0,1.55h30.24L56.6,77.54z"/>
		<path d="M215.55,80.64c0,10.85-2.46,18.74-7.37,23.65c-4.91,4.91-12.79,7.37-23.65,7.37h-38.77c-10.86,0-18.74-2.45-23.65-7.37
			c-4.91-4.91-7.37-12.79-7.37-23.65V31.01c0-10.85,2.45-18.74,7.37-23.65C127.03,2.46,134.91,0,145.77,0h38.77
			c10.86,0,18.74,2.46,23.65,7.37c4.91,4.91,7.37,12.79,7.37,23.65V80.64z M187.64,31.01c0-6.2-3.1-9.3-9.3-9.3h-26.36
			c-6.2,0-9.3,3.1-9.3,9.3v49.62c0,6.2,3.1,9.3,9.3,9.3h26.36c6.2,0,9.3-3.1,9.3-9.3V31.01z"/>
		<path d="M258.97,88.39h56.6v21.71h-84.51V1.55h27.91V88.39z"/>
		<path d="M360.54,110.1h-27.91V23.26h-32.57V1.55h93.04v21.71h-32.57V110.1z"/>
		<path d="M412.49,110.1h-30.24L423.35,1.55h31.01l41.09,108.55h-30.24l-6.98-19.38h-38.77L412.49,110.1z M426.45,70.56h24.81
			l-12.41-36.44L426.45,70.56z"/>
	</g>
	<path class="st0" d="M177.75,0.47c-2.84,7.02-5.61,13.87-8.62,21.3c3.81,0,7.11,0,10.4,0c0.14,0.25,0.28,0.5,0.42,0.76
		c-8.2,12.83-16.4,25.66-24.6,38.48c-0.27-0.12-0.54-0.24-0.81-0.35c2.09-9.29,4.19-18.57,6.38-28.3c-3.67,0-7.2,0-10.98,0
		c2.22-10.45,4.31-20.45,6.53-30.42c0.17-0.75,1.2-1.84,1.86-1.86c6.07-0.13,12.14-0.07,18.21-0.04
		C176.79,0.04,177.06,0.22,177.75,0.47z"/>
</g>
</svg>
