<?xml version="1.0" encoding="utf-8"?>
<!-- Generator: Adobe Illustrator 25.2.3, SVG Export Plug-In . SVG Version: 6.00 Build 0)  -->
<svg version="1.1" id="Layer_1" xmlns="http://www.w3.org/2000/svg" xmlns:xlink="http://www.w3.org/1999/xlink" x="0px" y="0px"
	 viewBox="0 0 495.46 111.65" style="enable-background:new 0 0 495.46 111.65;" xml:space="preserve">
<style type="text/css">
	.st0{fill:#FFFFFF;}
	.st1{fill-rule:evenodd;clip-rule:evenodd;fill:#00AEEF;}
</style>
<g>
	<g>
		<path class="st0" d="M56.6,77.54L82.96,1.55h30.24L72.11,110.1H41.09L0,1.55h30.24L56.6,77.54z"/>
		<path class="st0" d="M215.55,80.64c0,10.86-2.46,18.74-7.37,23.65c-4.91,4.91-12.79,7.37-23.65,7.37h-38.77
			c-10.86,0-18.74-2.45-23.65-7.37c-4.91-4.91-7.37-12.79-7.37-23.65V31.02c0-10.86,2.45-18.74,7.37-23.65
			C127.03,2.46,134.91,0,145.77,0h38.77c10.86,0,18.74,2.46,23.65,7.37c4.91,4.91,7.37,12.79,7.37,23.65V80.64z M187.64,31.02
			c0-6.2-3.1-9.3-9.3-9.3h-26.36c-6.2,0-9.3,3.1-9.3,9.3v49.62c0,6.2,3.1,9.3,9.3,9.3h26.36c6.2,0,9.3-3.1,9.3-9.3V31.02z"/>
		<path class="st0" d="M258.97,88.39h56.6v21.71h-84.52V1.55h27.91V88.39z"/>
		<path class="st0" d="M360.54,110.1h-27.91V23.26h-32.57V1.55h93.04v21.71h-32.57V110.1z"/>
		<path class="st0" d="M412.49,110.1h-30.24L423.35,1.55h31.01l41.09,108.55h-30.24l-6.98-19.38h-38.77L412.49,110.1z M426.45,70.56
			h24.81l-12.41-36.44L426.45,70.56z"/>
	</g>
	<path class="st1" d="M177.74,0.47c-2.86,7.05-5.64,13.94-8.66,21.4c3.83,0,7.14,0,10.45,0c0.14,0.25,0.28,0.51,0.42,0.76
		c-8.24,12.89-16.48,25.78-24.72,38.68c-0.27-0.12-0.54-0.24-0.82-0.35c2.1-9.33,4.21-18.66,6.41-28.44c-3.69,0-7.24,0-11.04,0
		c2.23-10.5,4.33-20.55,6.56-30.57c0.17-0.75,1.21-1.85,1.87-1.87c6.1-0.13,12.2-0.07,18.3-0.04
		C176.78,0.04,177.04,0.22,177.74,0.47z"/>
</g>
</svg>
